<svg xmlns="http://www.w3.org/2000/svg" viewBox="0 0 70 78.6"><path fill="#BB472B" d="M27.7 74.2h-.2c-4.2-1-8.1-2.9-11.5-5.5-.4-.3-.4-.8-.2-1.1.3-.4.8-.4 1.1-.2 3.3 2.5 7 4.2 10.9 5.2.4.1.7.5.6 1 0 .3-.3.6-.7.6zM65.6 44.4c-.4 0-.8-.4-.8-.8 0-5.9-1.7-11.6-5-16.5-.2-.4-.1-.9.2-1.1.4-.2.9-.1 1.1.2 3.4 5.2 5.3 11.2 5.3 17.4 0 .5-.3.8-.8.8zM58.1 24.3c-.2 0-.4-.1-.6-.3-.9-1.1-1.9-2.1-3-3-.3-.3-.4-.8-.1-1.1.3-.3.8-.4 1.1-.1 1.1 1 2.2 2 3.1 3.1.3.3.3.8-.1 1.1 0 .2-.2.3-.4.3z"/><path fill="#BB472B" d="M35 78.6c-19.3 0-35-15.7-35-35 0-3.1.4-6.1 1.2-9 .2-.6.8-1 1.5-.8.6.2 1 .8.8 1.5-.7 2.7-1.1 5.6-1.1 8.4 0 18 14.6 32.6 32.6 32.6s32.6-14.6 32.6-32.6c0-11.2-5.6-21.5-15.1-27.5-.6-.4-.7-1.1-.4-1.6.4-.6 1.1-.7 1.6-.4C64 20.6 70 31.6 70 43.6c0 19.3-15.7 35-35 35z"/><path fill="#BB472B" d="M46.1 32c-.2 0-.4-.1-.6-.2L42.8 29c-.3-.3-.3-.8 0-1.1.3-.3.8-.3 1.1 0l2.7 2.7c.3.3.3.8 0 1.1-.1.2-.3.3-.5.3z"/><path fill="#BB472B" d="M43.4 32c-.2 0-.4-.1-.6-.2-.3-.3-.3-.8 0-1.1l2.7-2.7c.3-.3.8-.3 1.1 0s.3.8 0 1.1l-2.7 2.7c-.1.1-.3.2-.5.2zM10 9.3c-.4 0-.8-.4-.8-.8V4.6c0-.4.4-.8.8-.8s.8.4.8.8v3.9c0 .4-.3.8-.8.8z"/><path fill="#BB472B" d="M11.9 7.3H8.1c-.5 0-.8-.3-.8-.8 0-.4.4-.8.8-.8H12c.4 0 .8.4.8.8-.1.5-.4.8-.9.8zM12.9 56.8c-.2 0-.4-.1-.6-.2-.3-.3-.3-.8 0-1.1l2.7-2.7c.3-.3.8-.3 1.1 0 .3.3.3.8 0 1.1l-2.7 2.7c-.1.2-.3.2-.5.2z"/><path fill="#BB472B" d="M15.6 56.8c-.2 0-.4-.1-.6-.2l-2.7-2.7c-.3-.3-.3-.8 0-1.1.3-.3.8-.3 1.1 0l2.7 2.7c.3.3.3.8 0 1.1-.1.2-.3.2-.5.2z"/><g><path fill="#BB472B" d="M55 49c-.4 0-.8-.4-.8-.8v-3.9c0-.4.4-.8.8-.8s.8.4.8.8v3.9c0 .4-.3.8-.8.8z"/><path fill="#BB472B" d="M57 47.1h-3.9c-.4 0-.8-.4-.8-.8s.4-.8.8-.8H57c.4 0 .8.4.8.8s-.4.8-.8.8z"/></g><g><path fill="#BB472B" d="M64.9 13c-3.6 0-6.5-2.9-6.5-6.5s3-6.5 6.5-6.5c.7 0 1.2.5 1.2 1.2s-.5 1.2-1.2 1.2c-2.3 0-4.1 1.8-4.1 4.1s1.8 4.1 4.1 4.1c.7 0 1.2.5 1.2 1.2s-.5 1.2-1.2 1.2zM10.3 34c-.6 0-1.1-.1-1.7-.2-1.7-.4-3-1.5-3.9-3-1.8-3.1-.7-7 2.3-8.8L43.6.9c3.1-1.8 7-.7 8.8 2.3 1.8 3.1.7 7-2.3 8.8L24.8 26.6l-1.1-2L49 10c2-1.1 2.7-3.7 1.5-5.7-.6-1-1.4-1.6-2.5-1.9-1.1-.3-2.2-.1-3.1.4L8.3 24c-1 .6-1.6 1.4-1.9 2.5-.3 1.1-.1 2.2.4 3.1s1.4 1.6 2.5 1.9c1.1.3 2.2.1 3.2-.4l2.1-1.2 1.1 2-2.1 1.2c-1 .6-2.1.9-3.3.9zM47.3 65.2H22.9c-.6 0-1.1-.5-1.1-1.1 0-7.4 6-13.3 13.3-13.3s13.3 6 13.3 13.3c.1.6-.4 1.1-1.1 1.1zm-23.2-2.3h22c-.6-5.6-5.3-9.9-11-9.9s-10.4 4.4-11 9.9z"/><path fill="#BB472B" d="M26.1 55.4L13.8 31c-.8-1.5-.9-3.3-.4-4.9.5-1.6 1.7-2.9 3.2-3.7 1.5-.8 3.3-.9 4.9-.4 1.5.5 2.8 1.6 3.6 3l.2.2 13.2 26.3-2 1-13.1-26c-.1-.1-.1-.1-.1-.2-.5-1-1.4-1.7-2.4-2.1-1.1-.3-2.2-.3-3.2.2s-1.7 1.4-2.1 2.4c-.3 1.1-.3 2.2.2 3.2L28 54.4l-1.9 1zM52.1 5.3h7.5v2.3h-7.5z"/><path fill="#BB472B" d="M20.7 29.8c-.1 0-.2 0-.3-.1l-2.2-2.2c-.2-.2-.2-.5 0-.7.2-.2.5-.2.7 0L21 29c.2.2.2.5 0 .7 0 0-.2.1-.3.1z"/><path fill="#BB472B" d="M18.5 29.8c-.1 0-.2 0-.3-.1-.2-.2-.2-.5 0-.7l2.2-2.2c.2-.2.5-.2.7 0 .2.2.2.5 0 .7l-2.2 2.2c-.1 0-.2.1-.4.1z"/></g><g><path fill="#BB472B" d="M8.1 62.9h53.8v2.3H8.1z"/></g></svg>