<svg xmlns="http://www.w3.org/2000/svg" viewBox="0 0 20 27"><path fill="#BB472B" d="M10 2.1c2.2 0 4 .8 5.6 2.3 1.5 1.5 2.3 3.4 2.3 5.6 0 1.1-.1 2-.4 2.6l-7.1 12.1c0 .1-.1.1-.1.1-.1.1-.1.1-.2.1s-.1 0-.2-.1l-.1-.1-7.2-12.1c-.3-.6-.5-1.5-.5-2.6 0-2.2.8-4 2.3-5.6C6 2.9 7.8 2.1 10 2.1m0 13.8c1.6 0 3-.6 4.1-1.7 1.1-1.1 1.7-2.6 1.7-4.1s-.6-3-1.7-4.1C13 4.7 11.6 4.2 10 4.2s-3 .5-4.1 1.7C4.7 7 4.1 8.4 4.1 10c0 1.6.6 3 1.7 4.1 1.2 1.2 2.6 1.8 4.2 1.8M10 0C7.2 0 4.9 1 2.9 2.9 1 4.9 0 7.2 0 10c0 1.4.2 2.6.6 3.5l7.1 12.1c.2.4.5.8.9 1 .5.3.9.4 1.4.4.5 0 .9-.1 1.3-.4.4-.2.7-.6.9-1l7.1-12.1c.4-.9.6-2.1.6-3.5 0-2.8-1-5.1-2.9-7.1C15.1 1 12.8 0 10 0zm0 13.7c-1 0-1.9-.4-2.6-1.1-.7-.7-1.1-1.6-1.1-2.6s.4-1.9 1.1-2.6C8.1 6.7 9 6.3 10 6.3s1.9.4 2.6 1.1c.7.7 1.1 1.6 1.1 2.6s-.4 1.9-1.1 2.6c-.7.7-1.6 1.1-2.6 1.1z"/></svg>