<svg xmlns="http://www.w3.org/2000/svg" viewBox="0 0 70 70"><path fill="#BB472B" d="M54.1 59.2c-.2 0-.5-.1-.6-.3-.3-.3-.2-.8.1-1.1.9-.7 1.7-1.5 2.5-2.3.3-.3.8-.3 1.1 0 .3.3.3.8 0 1.1-.8.9-1.7 1.7-2.7 2.4-.1.2-.2.2-.4.2zM58.5 54.8c-.2 0-.4-.1-.5-.2-.3-.3-.4-.8-.1-1.1.4-.4.7-.9 1-1.3.3-.4.8-.4 1.1-.2.4.3.4.8.2 1.1-.3.5-.7.9-1.1 1.4-.2.2-.4.3-.6.3zM61.7 50.1c-.1 0-.3 0-.4-.1-.4-.2-.5-.7-.3-1.1 1.7-3.2 2.8-6.7 3.3-10.4.2-2 .3-4 .1-6 0-.4.3-.8.7-.9.4 0 .8.3.9.7.2 2.1.1 4.3-.1 6.4-.5 3.9-1.6 7.6-3.4 11-.3.2-.6.4-.8.4zM13.4 14.6c-.2 0-.4-.1-.6-.2-.3-.3-.3-.8 0-1.1 3.1-3.2 6.8-5.6 10.9-7.2.4-.2.9 0 1 .5.2.4 0 .9-.5 1-3.8 1.5-7.2 3.8-10.2 6.8-.1.1-.3.2-.6.2zM32.7 56.5c-.3 0-.6-.2-.7-.5-.1-.4.1-.9.5-1l3.6-1.3c.4-.1.9.1 1 .5.1.4-.1.9-.5 1L33 56.4c-.1.1-.2.1-.3.1z"/><path fill="#BB472B" d="M35.2 57.6c-.3 0-.6-.2-.7-.5l-1.3-3.6c-.1-.4.1-.9.5-1 .4-.1.9.1 1 .5l1.3 3.6c.1.4-.1.9-.5 1h-.3zM16.8 52.5c-.3 0-.6-.2-.7-.5-.1-.4.1-.9.5-1l3.6-1.3c.4-.1.9.1 1 .5.1.4-.1.9-.5 1L17 52.5h-.2z"/><path fill="#BB472B" d="M19.2 53.7c-.3 0-.6-.2-.7-.5l-1.3-3.6c-.1-.4.1-.9.5-1 .4-.1.9.1 1 .5l1.3 3.6c.1.4-.1.9-.5 1h-.3zM29 59c-.1 0-.3 0-.4-.1l-4.3-2c-.5-.2-.7-.8-.5-1.3.2-.5.8-.7 1.3-.5l4.3 2c.5.2.7.8.5 1.3-.2.4-.5.6-.9.6z"/><path fill="#BB472B" d="M25.8 60.1c-.1 0-.3 0-.4-.1-.5-.2-.7-.8-.5-1.3l2-4.3c.2-.5.8-.7 1.3-.5.5.2.7.8.5 1.3l-2 4.3c-.1.4-.5.6-.9.6zM26.9 51c-.1 0-.2 0-.3-.1L23 49.2c-.4-.2-.6-.7-.4-1.1.2-.4.7-.6 1.1-.4l3.5 1.7c.4.2.6.7.4 1.1-.2.3-.4.5-.7.5z"/><path fill="#BB472B" d="M24.3 51.9c-.1 0-.2 0-.3-.1-.4-.2-.6-.7-.4-1.1l1.7-3.5c.2-.4.7-.6 1.1-.4.4.2.6.7.4 1.1L25 51.4c-.1.3-.4.5-.7.5zM23.7 42.5c-.2 0-.4-.1-.4-.3l-.8-2.1c-.1-.2 0-.5.3-.6.2-.1.5 0 .6.3l.8 2.1c.1.2 0 .5-.3.6h-.2z"/><path fill="#BB472B" d="M22.3 41.8c-.2 0-.4-.1-.4-.3-.1-.2 0-.5.3-.6l2.1-.8c.2-.1.5 0 .6.3.1.2 0 .5-.3.6l-2.1.8h-.2z"/><g><path fill="#BB472B" d="M36.5 50.8h-.2c-.2-.1-.3-.4-.2-.6l1-2c.1-.2.4-.3.6-.2.2.1.3.4.2.6l-1 2c-.1.1-.2.2-.4.2z"/><path fill="#BB472B" d="M38 50.3h-.2l-2-1c-.2-.1-.3-.4-.2-.6.1-.2.4-.3.6-.2l2 1c.2.1.3.4.2.6 0 .1-.2.2-.4.2z"/></g><g><path fill="#BB472B" d="M18.1 44.6h-.2c-.2-.1-.3-.4-.2-.6l1-2c.1-.2.4-.3.6-.2.2.1.3.4.2.6l-1 2c-.1.1-.2.2-.4.2z"/><path fill="#BB472B" d="M19.6 44.1h-.2l-2-1c-.2-.1-.3-.4-.2-.6.1-.2.4-.3.6-.2l2 1c.2.1.3.4.2.6-.1.1-.2.2-.4.2z"/></g><g><path fill="#BB472B" d="M53.3 43.2c-.1 0-.3 0-.4-.1l-19.4-6.6c-.4-.1-.7-.4-.8-.8-.1-.4 0-.8.2-1.1L59.4 2.4c.3-.4.9-.6 1.4-.3.5.2.8.8.7 1.3l-7 38.9c-.1.3-.3.6-.6.8-.2.1-.4.1-.6.1zm-17.4-8.3l16.5 5.6 5.9-33-22.4 27.4z"/><path fill="#BB472B" d="M27.3 34.5c-.1 0-.3 0-.4-.1l-15.2-5.1c-.5-.2-.8-.6-.8-1 0-.5.2-.9.6-1.2l48.3-25c.5-.2 1.2-.1 1.5.4.3.5.3 1.2-.2 1.6l-33 30.1c-.2.2-.5.3-.8.3zm-12.1-6.6l11.8 4L52.8 8.4 15.2 27.9z"/><path fill="#BB472B" d="M31.7 48.8c-.5 0-1-.3-1.1-.8l-4.3-14.4 2.3-.7 2.9 9.6 1.3-7.3 2.3.4-2.2 12.1c-.2.7-.6 1.1-1.2 1.1z"/><path fill="#BB472B" d="M39.4716 36.844l1.8072 1.5792-8.6856 9.9396-1.8072-1.5792z"/></g><g><path fill="#BB472B" d="M35 70C15.7 70 0 54.3 0 35S15.7 0 35 0c4.6 0 9.1.9 13.4 2.7.6.3.9 1 .6 1.6s-1 .9-1.6.6c-4-1.6-8.2-2.5-12.5-2.5C17 2.4 2.4 17 2.4 35S17 67.6 35 67.6 67.6 53 67.6 35c0-6.5-1.9-12.7-5.5-18.1-.4-.5-.2-1.3.3-1.7.5-.4 1.3-.2 1.7.3C68 21.3 70 28.1 70 35c0 19.3-15.7 35-35 35z"/></g></svg>