<svg xmlns="http://www.w3.org/2000/svg" viewBox="0 0 70 79.5"><path fill="#BB472B" d="M5.4 45.3c-.4 0-.8-.4-.8-.8 0-3.5.6-6.9 1.8-10.2.8-2.1 1.7-4.1 2.9-6 .2-.4.7-.5 1.1-.2.4.2.5.7.2 1.1-1.1 1.8-2.1 3.7-2.8 5.7-1.1 3.1-1.7 6.3-1.7 9.7.1.3-.2.7-.7.7zM51.7 69.7c-.3 0-.5-.1-.7-.3-.2-.4-.2-.9.2-1.1 2.4-1.7 4.6-3.7 6.4-6.1.3-.3.8-.4 1.1-.1.3.3.4.8.1 1.1-1.9 2.5-4.2 4.6-6.8 6.4.1 0-.1.1-.3.1zM62.6 56c-.1 0-.2 0-.3-.1-.4-.2-.6-.6-.5-1 .5-1.2.8-2.4 1.1-3.6.5-2.2.8-4.5.8-6.8 0-4.3-.9-8.4-2.7-12.2-.2-.4 0-.9.4-1.1.4-.2.9 0 1.1.4 1.9 4 2.9 8.4 2.9 12.9 0 2.4-.3 4.8-.8 7.1-.3 1.3-.7 2.6-1.2 3.8-.2.4-.5.6-.8.6zM41.9 50.5c-.7 0-1.2-.5-1.2-1.2v-4.2c0-5.5 2.3-10.7 6.4-14.3l.1-.1c.2-.1 4.6-3.6 4.6-11.6 0-9.3-7.5-16.8-16.8-16.8S18.2 9.9 18.2 19.2c0 8 4.4 11.5 4.6 11.6l.1.1c4.1 3.6 6.4 8.9 6.4 14.3v2.6c0 .7-.5 1.2-1.2 1.2s-1.2-.5-1.2-1.2v-2.6c0-4.8-2-9.3-5.6-12.5-.6-.5-5.5-4.6-5.5-13.5C15.8 8.6 24.4 0 35 0s19.2 8.6 19.2 19.2c0 8.9-4.9 13-5.5 13.5-3.5 3.2-5.6 7.7-5.6 12.5v4.2c0 .6-.5 1.1-1.2 1.1z"/><path fill="#BB472B" d="M41.9 57.9h-.1l-13.3-1.5c-2.6 0-4.8-2.2-4.8-4.9s2.2-4.9 4.9-4.9h.1L42 48.1c2.6 0 4.8 2.2 4.8 4.9-.1 2.7-2.3 4.9-4.9 4.9zM28.4 49c-1.3 0-2.4 1.1-2.4 2.5s1.1 2.5 2.5 2.5h.1l13.3 1.5c1.3 0 2.4-1.1 2.4-2.5s-1.1-2.5-2.5-2.5h-.1L28.4 49z"/><path fill="#BB472B" d="M41.9 65.2h-.1l-13.3-1.5c-2.6 0-4.8-2.2-4.8-4.9s2.2-4.9 4.9-4.9h.1L42 55.4c2.6 0 4.8 2.2 4.8 4.9-.1 2.7-2.3 4.9-4.9 4.9zm-13.5-8.9c-1.3 0-2.4 1.1-2.4 2.5s1.1 2.5 2.5 2.5h.1l13.3 1.5c1.3 0 2.4-1.1 2.4-2.5s-1.1-2.5-2.5-2.5h-.1l-13.3-1.5z"/><path fill="#BB472B" d="M35 68.9c-3.1 0-5.6-2.5-5.6-5.6 0-.6.5-1.1 1.1-1.1s1.1.5 1.1 1.1c0 1.9 1.5 3.4 3.4 3.4s3.4-1.5 3.4-3.4c0-.6.5-.4 1.1-.4.6 0 1-.2 1 .4.1 3-2.4 5.6-5.5 5.6zM43 26.5H27.4c-.7 0-1.2-.5-1.2-1.2s.5-1.2 1.2-1.2H43c.7 0 1.2.5 1.2 1.2s-.5 1.2-1.2 1.2z"/><path fill="#BB472B" d="M35.2 49.8c-.7 0-1.2-.5-1.2-1.2V25.3c0-.7.5-1.2 1.2-1.2s1.2.5 1.2 1.2v23.2c0 .7-.6 1.3-1.2 1.3z"/><path fill="#BB472B" d="M35 79.5c-19.3 0-35-15.7-35-35C0 34.9 3.8 26 10.6 19.4c.5-.5 1.2-.4 1.7 0 .5.5.4 1.2 0 1.7-6.4 6.2-9.9 14.5-9.9 23.4 0 18 14.6 32.6 32.6 32.6s32.6-14.6 32.6-32.6c0-8.9-3.5-17.2-9.9-23.4-.5-.5-.5-1.2 0-1.7s1.2-.5 1.7 0C66.2 26 70 34.9 70 44.5c0 19.3-15.7 35-35 35zM60.1 12.6c-.2 0-.4-.1-.5-.2L57 9.8c-.3-.3-.3-.8 0-1.1.3-.3.8-.3 1.1 0l2.6 2.6c.3.3.3.8 0 1.1-.2.1-.4.2-.6.2z"/><path fill="#BB472B" d="M57.5 12.6c-.2 0-.4-.1-.5-.2-.3-.3-.3-.8 0-1.1l2.6-2.6c.3-.3.8-.3 1.1 0 .3.3.3.8 0 1.1L58 12.4c-.2.1-.3.2-.5.2zM19.9 60.1c-.2 0-.4-.1-.5-.2l-2.6-2.6c-.3-.3-.3-.8 0-1.1.3-.3.8-.3 1.1 0l2.6 2.6c.3.3.3.8 0 1.1-.2.1-.4.2-.6.2z"/><path fill="#BB472B" d="M17.2 60.1c-.2 0-.4-.1-.5-.2-.3-.3-.3-.8 0-1.1l2.6-2.6c.3-.3.8-.3 1.1 0 .3.3.3.8 0 1.1l-2.6 2.6c-.2.1-.4.2-.6.2zM14.9 39c-.4 0-.8-.3-.8-.8v-3.7c0-.4.3-.8.8-.8s.8.3.8.8v3.7c0 .5-.3.8-.8.8z"/><path fill="#BB472B" d="M16.8 37.2h-3.7c-.4 0-.8-.3-.8-.8 0-.4.3-.8.8-.8h3.7c.4 0 .8.3.8.8 0 .4-.4.8-.8.8zM54.6 53.8c-.4 0-.8-.3-.8-.8v-3.7c0-.4.3-.8.8-.8.4 0 .8.3.8.8V53c-.1.5-.4.8-.8.8z"/><path fill="#BB472B" d="M56.4 52h-3.7c-.4 0-.8-.3-.8-.8 0-.4.3-.8.8-.8h3.7c.4 0 .8.3.8.8 0 .4-.3.8-.8.8z"/><g><path fill="#BB472B" d="M10 16.6c-.4 0-.8-.3-.8-.8v-3.7c0-.4.3-.8.8-.8s.8.3.8.8v3.7c0 .4-.4.8-.8.8z"/><path fill="#BB472B" d="M11.9 14.7H8.1c-.4 0-.8-.3-.8-.8 0-.4.3-.8.8-.8h3.7c.4 0 .8.3.8.8s-.3.8-.7.8z"/></g></svg>