<svg xmlns="http://www.w3.org/2000/svg" viewBox="0 0 70 78.6"><path fill="#BB472B" d="M35 74.8c-.4 0-.8-.4-.8-.8s.4-.8.8-.8c4.9 0 9.8-1.2 14.1-3.6.4-.2.9-.1 1.1.3.2.4.1.9-.3 1.1-4.6 2.6-9.7 3.8-14.9 3.8zM31.9 74.7c-1.3-.1-2.6-.3-3.8-.6-1.6-.4-3.1-.8-4.7-1.5-.4-.2-.6-.6-.4-1 .2-.4.6-.6 1-.4 1.4.6 2.9 1 4.4 1.4 1.2.3 2.4.5 3.6.6.4 0 .8.4.7.9 0 .3-.4.6-.8.6z"/><path fill="#BB472B" d="M35 78.6c-19.3 0-35-15.7-35-35 0-8.5 3.1-16.7 8.6-23 .4-.5 1.2-.5 1.7-.1s.5 1.2.1 1.7c-5.2 5.9-8 13.6-8 21.5 0 18 14.6 32.6 32.6 32.6s32.6-14.6 32.6-32.6c0-7.9-2.9-15.5-8.1-21.5-.4-.5-.4-1.2.1-1.7.5-.4 1.3-.4 1.7.1 5.6 6.4 8.6 14.6 8.6 23 .1 19.3-15.6 35-34.9 35zM62.9 10.4c-.2 0-.4-.1-.6-.2l-2.7-2.7c-.3-.3-.3-.8 0-1.1.3-.3.8-.3 1.1 0L63.4 9c.3.3.3.8 0 1.1-.1.2-.3.3-.5.3z"/><path fill="#BB472B" d="M60.2 10.4c-.2 0-.4-.1-.6-.2-.3-.3-.3-.8 0-1.1l2.7-2.7c.3-.3.8-.3 1.1 0 .3.3.3.8 0 1.1l-2.7 2.7c-.1.1-.3.2-.5.2zM9.7 17.3c-.2 0-.4-.1-.6-.2l-2.7-2.7c-.3-.3-.3-.8 0-1.1.3-.3.8-.3 1.1 0l2.7 2.7c.3.3.3.8 0 1.1-.1.1-.3.2-.5.2z"/><path fill="#BB472B" d="M7 17.3c-.2 0-.4-.1-.6-.2-.3-.3-.3-.8 0-1.1l2.7-2.7c.3-.3.8-.3 1.1 0s.3.8 0 1.1L7.5 17c-.1.2-.3.3-.5.3z"/><g><path fill="#BB472B" d="M9.7 37.3c-.3 0-.5-.2-.5-.5v-2.3c0-.3.2-.5.5-.5s.5.2.5.5v2.3c0 .3-.2.5-.5.5z"/><path fill="#BB472B" d="M10.8 36.2H8.6c-.3 0-.5-.2-.5-.5s.2-.5.5-.5h2.3c.3 0 .5.2.5.5s-.3.5-.6.5z"/></g><g><path fill="#BB472B" d="M35 28.1c-.4 0-.8-.4-.8-.8v-3.9c0-.4.4-.8.8-.8s.8.4.8.8v3.9c0 .4-.4.8-.8.8z"/><path fill="#BB472B" d="M36.9 26.1H33c-.4 0-.8-.4-.8-.8s.4-.8.8-.8h3.9c.4 0 .8.4.8.8 0 .5-.3.8-.8.8z"/></g><g><path fill="#BB472B" d="M64.4 61.4H5.6c-.7 0-1.2-.5-1.2-1.2S4.9 59 5.6 59h58.9c.7 0 1.2.5 1.2 1.2-.1.7-.6 1.2-1.3 1.2zM68.8 46.8H1.3c-.7 0-1.2-.5-1.2-1.2s.5-1.2 1.2-1.2h67.5c.7 0 1.2.5 1.2 1.2s-.6 1.2-1.2 1.2zM31.4 57.5H17.8c-.7 0-1.2-.5-1.2-1.2v-6.4c0-.7.5-1.2 1.2-1.2h13.7c.7 0 1.2.5 1.2 1.2v6.4c-.1.7-.6 1.2-1.3 1.2zM19 55.1h11.3V51H19v4.1zM52.2 57.5H38.6c-.7 0-1.2-.5-1.2-1.2v-6.4c0-.7.5-1.2 1.2-1.2h13.7c.7 0 1.2.5 1.2 1.2v6.4c-.1.7-.6 1.2-1.3 1.2zm-12.4-2.4H51V51H39.8v4.1zM66.2 57.5h-6.8c-.7 0-1.2-.5-1.2-1.2v-6.4c0-.7.5-1.2 1.2-1.2h8.9c.7 0 1.2.5 1.2 1.2s-.5 1.2-1.2 1.2h-7.7v4.1h5.6c.7 0 1.2.5 1.2 1.2 0 .6-.6 1.1-1.2 1.1zM10.6 57.5H3.8c-.7 0-1.2-.5-1.2-1.2s.5-1.2 1.2-1.2h5.6V51H1.8c-.7 0-1.2-.5-1.2-1.2s.5-1.2 1.2-1.2h8.8c.7 0 1.2.5 1.2 1.2v6.4c0 .8-.5 1.3-1.2 1.3z"/><path fill="#BB472B" d="M55.3 46.6H14.7c-.6 0-1-.4-1-1V5c0-.6.4-1 1-1h40.6c.6 0 1 .4 1 1v40.6c0 .5-.5 1-1 1zm-39.6-2h38.6V6H15.7v38.6z"/><path fill="#BB472B" d="M35 18.7c-.6 0-1-.4-1-1V5c0-.6.4-1 1-1s1 .4 1 1v12.7c0 .6-.4 1-1 1zM24.9 28.9c-.6 0-1-.4-1-1V5c0-.6.4-1 1-1s1 .4 1 1v22.9c0 .5-.5 1-1 1zM24.9 46.6c-.6 0-1-.4-1-1v-2.9c0-.6.4-1 1-1s1 .4 1 1v2.9c0 .5-.5 1-1 1zM45.1 46.6c-.6 0-1-.4-1-1v-23c0-.6.4-1 1-1s1 .4 1 1v23c0 .5-.4 1-1 1zM45.1 8.6c-.6 0-1-.4-1-1V5c0-.6.4-1 1-1s1 .4 1 1v2.5c0 .6-.4 1.1-1 1.1z"/><path fill="#BB472B" d="M14.7 39c-.3 0-.5-.1-.7-.3-.4-.4-.4-1 0-1.4L46.9 4.4c.4-.4 1-.4 1.4 0 .4.4.4 1 0 1.4L15.4 38.7c-.2.2-.4.3-.7.3zM22.1 46.4c-.3 0-.5-.1-.7-.3-.4-.4-.4-1 0-1.4l33.2-33.2c.4-.4 1-.4 1.4 0 .4.4.4 1 0 1.4L22.8 46.1c-.2.2-.4.3-.7.3z"/><path fill="#BB472B" d="M35 46.6c-.6 0-1-.4-1-1V32.5c0-.6.4-1 1-1s1 .4 1 1v13.1c0 .5-.4 1-1 1z"/></g></svg>