<svg xmlns="http://www.w3.org/2000/svg" viewBox="0 0 70 78.6"><path fill="#BB472B" d="M35 74.8c-5.2 0-10.3-1.3-14.8-3.7-.4-.2-.5-.7-.3-1.1.2-.4.7-.5 1.1-.3 4.3 2.3 9.2 3.6 14.1 3.6.4 0 .8.4.8.8s-.5.7-.9.7zM38.1 74.7c-.4 0-.7-.3-.8-.7 0-.4.3-.8.7-.9 1.2-.1 2.4-.3 3.6-.6 1.5-.3 3-.8 4.4-1.4.4-.2.9 0 1 .4.2.4 0 .9-.4 1-1.5.6-3.1 1.1-4.7 1.5-1.2.4-2.4.6-3.8.7.1 0 0 0 0 0z"/><path fill="#BB472B" d="M35 78.6c-19.3 0-35-15.7-35-35 0-8.5 3.1-16.7 8.6-23 .4-.5 1.2-.5 1.7-.1s.5 1.2.1 1.7c-5.2 5.9-8 13.6-8 21.5 0 18 14.6 32.6 32.6 32.6s32.6-14.6 32.6-32.6c0-7.9-2.9-15.5-8.1-21.5-.4-.5-.4-1.2.1-1.7.5-.4 1.3-.4 1.7.1 5.6 6.4 8.6 14.6 8.6 23 .1 19.3-15.6 35-34.9 35zM9 16.1c-.2 0-.4-.1-.6-.2l-2.7-2.7c-.3-.3-.3-.8 0-1.1.3-.3.8-.3 1.1 0l2.7 2.7c.3.3.3.8 0 1.1-.1.1-.3.2-.5.2z"/><path fill="#BB472B" d="M6.2 16.1c-.2 0-.4-.1-.6-.2-.3-.3-.3-.8 0-1.1L8.4 12c.3-.3.8-.3 1.1 0 .3.3.3.8 0 1.1l-2.7 2.7c-.2.2-.4.3-.6.3zM62.5 37c-.1 0-.2 0-.3-.1l-1.6-1.6c-.2-.2-.2-.5 0-.7.2-.2.5-.2.7 0l1.6 1.6c.2.2.2.5 0 .7-.1 0-.3.1-.4.1z"/><path fill="#BB472B" d="M60.9 37c-.1 0-.2 0-.3-.1-.2-.2-.2-.5 0-.7l1.6-1.6c.2-.2.5-.2.7 0 .2.2.2.5 0 .7l-1.6 1.6c-.2 0-.3.1-.4.1zM63.8 11.2c-.4 0-.8-.4-.8-.8V6.5c0-.4.4-.8.8-.8s.8.4.8.8v3.9c0 .4-.3.8-.8.8z"/><path fill="#BB472B" d="M65.7 9.3h-3.9c-.4 0-.8-.4-.8-.8s.4-.8.8-.8h3.9c.4 0 .8.4.8.8s-.3.8-.8.8z"/><g><path fill="#BB472B" d="M55.3 43H14.7c-.7 0-1.2-.5-1.2-1.2V1.2c0-.7.5-1.2 1.2-1.2h40.6c.7 0 1.2.5 1.2 1.2v40.6c0 .6-.6 1.2-1.2 1.2zm-39.4-2.4h38.2V2.4H15.9v38.2z"/><path fill="#BB472B" d="M33.8 1.2h2.4v9.2h-2.4zM33.8 32.6h2.4v9.2h-2.4z"/></g><g><path fill="#BB472B" d="M13.5 54.4c-.1 0-.2 0-.3-.1L11 52.1c-.2-.2-.2-.5 0-.7.2-.2.5-.2.7 0l2.2 2.2c.2.2.2.5 0 .7-.2.1-.3.1-.4.1z"/><path fill="#BB472B" d="M11.3 54.4c-.1 0-.2 0-.3-.1-.2-.2-.2-.5 0-.7l2.2-2.2c.2-.2.5-.2.7 0 .2.2.2.5 0 .7l-2.2 2.2c-.2.1-.3.1-.4.1zM58.7 54.4c-.1 0-.2 0-.3-.1l-2.2-2.2c-.2-.2-.2-.5 0-.7.2-.2.5-.2.7 0l2.2 2.2c.2.2.2.5 0 .7-.2.1-.3.1-.4.1z"/><path fill="#BB472B" d="M56.5 54.4c-.1 0-.2 0-.3-.1-.2-.2-.2-.5 0-.7l2.2-2.2c.2-.2.5-.2.7 0 .2.2.2.5 0 .7l-2.2 2.2c-.1.1-.3.1-.4.1zM35 54.9c-.3 0-.5-.2-.5-.5v-3.1c0-.3.2-.5.5-.5s.5.2.5.5v3.1c0 .3-.2.5-.5.5z"/><path fill="#BB472B" d="M36.5 53.3h-3.1c-.3 0-.5-.2-.5-.5s.2-.5.5-.5h3.1c.3 0 .5.2.5.5s-.2.5-.5.5zM57.6 60.8c-4.4 0-7.9-3.6-7.9-7.9 0-4.4 3.6-7.9 7.9-7.9s7.9 3.6 7.9 7.9c0 4.4-3.5 7.9-7.9 7.9zm0-13.5c-3.1 0-5.6 2.5-5.6 5.6 0 3.1 2.5 5.6 5.6 5.6s5.6-2.5 5.6-5.6c0-3.1-2.5-5.6-5.6-5.6z"/><g><path fill="#BB472B" d="M12.4 60.8c-4.4 0-7.9-3.6-7.9-7.9 0-4.4 3.6-7.9 7.9-7.9s7.9 3.6 7.9 7.9c0 4.4-3.5 7.9-7.9 7.9zm0-13.5c-3.1 0-5.6 2.5-5.6 5.6 0 3.1 2.5 5.6 5.6 5.6S18 56 18 52.9c0-3.1-2.5-5.6-5.6-5.6z"/></g><g><path fill="#BB472B" d="M35 60.8c-4.4 0-7.9-3.6-7.9-7.9 0-4.4 3.6-7.9 7.9-7.9s7.9 3.6 7.9 7.9c0 4.4-3.5 7.9-7.9 7.9zm0-13.5c-3.1 0-5.6 2.5-5.6 5.6 0 3.1 2.5 5.6 5.6 5.6s5.6-2.5 5.6-5.6c0-3.1-2.5-5.6-5.6-5.6z"/></g><g><path fill="#BB472B" d="M1.6 46.9c2.1-3.8 6.1-6.3 10.8-6.3h45.2c4.2 0 8 2.2 10.2 5.4v6.4l-6.1 12.1c-1.3.5-2.7.7-4.1.7H12.4c-1.6 0-3.2-.3-4.7-.9M12.4 43c-5.5 0-9.9 4.4-9.9 9.9s4.4 9.9 9.9 9.9h45.2c5.5 0 9.9-4.5 9.9-9.9S63.1 43 57.6 43H12.4z"/></g></g></svg>