<svg xmlns="http://www.w3.org/2000/svg" viewBox="0 0 20 20"><path fill="#BB472B" d="M3.8 1.5c0 .1.1.2.2.3.1.2.3.5.4.8.2.3.4.6.5.9.2.3.3.5.5.8v.2s.1.1.2.3c-.1.1-.3.2-.5.4-.3.2-.7.5-1 .8-.2.2-.8.9-.8 1.7 0 .3.1.5.2.8 0 .2.1.4.1.5 0 .1.1.2.3.5l.1.1c.8 1.4 1.7 2.6 2.7 3.7 1 1 2.2 1.9 3.7 2.7 0 0 .1.1.2.1.2.1.4.2.5.3.1.1.3.1.4.2.3.1.6.2.8.2.9 0 1.5-.6 1.7-.8.3-.3.6-.7.9-1 .1-.2.3-.4.5-.5.2.1.3.2.3.2h.2c.2.1.5.3.8.5.3.2.6.3.9.5.3.2.6.3.7.4.1.1.2.1.3.2 0 .1 0 .2-.1.3-.1.4-.2.6-.2.7 0 0-.2.3-1.1.8-.7.4-1.3.6-2 .6h-.6c-.2 0-.4-.1-.6-.1-.3-.1-.5-.1-.6-.2-.1-.1-.4-.1-.8-.3-.4-.2-.7-.2-.7-.3-.8-.3-1.6-.6-2.2-1-1.1-.7-2.3-1.6-3.5-2.9C5 12.7 4 11.5 3.3 10.4c-.3-.8-.7-1.5-1-2.3 0-.1-.1-.3-.3-.7-.1-.4-.2-.7-.2-.8 0-.1-.1-.2-.2-.6-.1-.2-.1-.5-.1-.6v-.6c0-.6.2-1.3.5-1.9.5-.9.8-1.1.8-1.1.1 0 .3-.1.7-.2.1-.1.2-.1.3-.1M4.2 0c-.3 0-.6 0-1 .1s-.7.2-1 .3c-.5.2-1 .8-1.5 1.7-.5 1-.7 1.8-.7 2.7v.7c0 .2.1.5.2.8.1.3.2.5.2.7.1.1.1.4.3.8.2.4.3.7.3.7.3.9.7 1.8 1.2 2.5.7 1.2 1.8 2.5 3.1 3.8 1.3 1.3 2.5 2.3 3.8 3.1.7.5 1.6.8 2.5 1.2.1 0 .3.1.7.3.4.1.6.2.8.3.1.1.4.1.7.2.3.1.6.1.8.2h.7c.9 0 1.8-.2 2.6-.7 1-.5 1.5-1 1.7-1.5.1-.2.2-.6.3-1 .1-.4.1-.7.1-1v-.3c-.1-.2-.4-.4-1.1-.8l-.8-.4c-.3-.2-.6-.3-.9-.5-.3-.2-.5-.3-.8-.4l-.4-.2c-.2-.1-.4-.2-.5-.3-.1-.1-.3-.1-.4-.1-.2 0-.4.1-.7.4-.3.3-.5.6-.8.9-.2.3-.5.6-.8.9-.3.3-.5.4-.7.4-.1 0-.2 0-.3-.1-.1 0-.2-.1-.3-.1-.1 0-.2-.1-.3-.2-.2-.1-.3-.2-.3-.2-1.3-.7-2.4-1.5-3.3-2.5-.9-.9-1.8-2-2.5-3.3 0 0-.1-.1-.2-.3.1-.3 0-.4 0-.5 0-.1-.1-.2-.1-.3 0-.1-.1-.2-.1-.3 0-.2.1-.4.4-.7.3-.2.6-.5.9-.7.3-.2.6-.5.9-.8.2-.3.4-.5.4-.7 0-.1 0-.3-.1-.4-.1-.1-.2-.3-.3-.5l-.3-.3c-.1-.3-.3-.5-.4-.8-.2-.3-.3-.6-.5-.9-.2-.3-.3-.6-.4-.8-.4-.6-.6-1-.8-1.1h-.3z"/></svg>